<?xml version="1.0" encoding="UTF-8"?>
<svg id="Layer_1" data-name="Layer 1" xmlns="http://www.w3.org/2000/svg" viewBox="0 0 231.15 256">
  <defs>
    <style>
      .cls-1 {
        fill: #44469c;
      }
    </style>
  </defs>
  <path class="cls-1" d="M115.58,256c-9.71,0-17.13-3.07-22.23-9.2-5.11-6.13-7.66-13.03-7.66-20.69,0-8.17,1.65-15.71,4.98-22.61,3.32-6.9,6.9-14.81,10.73-23.76,3.83-8.93,6.51-19.8,8.05-32.57.5-3.07-.13-4.98-1.92-5.75-1.8-.77-3.96-.12-6.51,1.92-15.33,12.78-25.94,24.53-31.81,35.26-5.88,10.73-13.93,18.91-24.14,24.53-6.65,3.58-13.8,4.73-21.46,3.45-7.66-1.27-14.06-6-19.16-14.18-4.6-8.68-5.63-16.86-3.07-24.53,2.55-7.66,7.15-13.28,13.8-16.86,7.15-4.08,14.68-6.38,22.61-6.9,7.92-.5,16.6-1.27,26.06-2.3,9.45-1.02,20.05-4.08,31.81-9.2,3.07-1.02,4.6-2.55,4.6-4.6s-1.53-3.57-4.6-4.6c-11.76-5.62-22.36-8.82-31.81-9.58-9.46-.77-18.14-1.4-26.06-1.92-7.93-.5-15.46-2.8-22.61-6.9-6.65-4.08-11.25-9.96-13.8-17.63-2.56-7.66-1.53-15.58,3.07-23.76,5.1-8.17,11.5-13.03,19.16-14.56,7.66-1.53,14.81-.25,21.46,3.83,7.15,4.1,13.03,9.33,17.63,15.71,4.6,6.4,9.7,13.41,15.33,21.08,5.62,7.66,13.53,15.59,23.76,23.76,2.55,2.05,4.6,2.56,6.13,1.53,1.53-1.02,2.04-3.07,1.53-6.13-1.53-13.28-4.21-24.26-8.05-32.96-3.83-8.68-7.41-16.6-10.73-23.76-3.33-7.15-4.98-14.56-4.98-22.23s2.55-14.56,7.66-20.69c5.1-6.13,12.52-9.2,22.23-9.2s17.11,3.07,22.23,9.2c5.1,6.13,7.66,13.03,7.66,20.69s-1.67,15.08-4.98,22.23c-3.33,7.16-6.9,15.08-10.73,23.76-3.83,8.7-6.52,19.68-8.05,32.96-.51,3.07.12,5.11,1.92,6.13,1.79,1.03,3.7.51,5.75-1.53,10.73-8.17,18.78-16.1,24.14-23.76,5.37-7.66,10.35-14.68,14.95-21.08,4.6-6.38,10.47-11.62,17.63-15.71,6.64-4.08,13.8-5.36,21.46-3.83,7.66,1.53,14.05,6.4,19.16,14.56,4.6,8.18,5.62,16.09,3.07,23.76-2.56,7.66-7.16,13.55-13.8,17.63-7.16,4.1-14.7,6.4-22.61,6.9-7.93.51-16.61,1.15-26.06,1.92-9.46.77-20.06,3.96-31.81,9.58-3.07,1.03-4.6,2.56-4.6,4.6s1.53,3.58,4.6,4.6c11.75,5.11,22.35,8.18,31.81,9.2,9.45,1.03,18.13,1.8,26.06,2.3,7.92.51,15.45,2.81,22.61,6.9,6.63,3.58,11.23,9.2,13.8,16.86,2.55,7.66,1.53,15.85-3.07,24.53-5.11,8.18-11.5,12.91-19.16,14.18-7.66,1.28-14.83.13-21.46-3.45-9.71-5.62-17.63-13.8-23.76-24.53-6.13-10.73-16.86-22.48-32.19-35.26-2.05-2.04-4.1-2.68-6.13-1.92-2.05.77-2.81,2.68-2.3,5.75,1.53,12.78,4.22,23.64,8.05,32.57,3.83,8.95,7.4,16.86,10.73,23.76,3.32,6.9,4.98,14.44,4.98,22.61,0,7.66-2.56,14.56-7.66,20.69-5.11,6.13-12.53,9.2-22.23,9.2Z"/>
</svg>